<svg width="1686" height="701" viewBox="0 0 1686 701" fill="none" xmlns="http://www.w3.org/2000/svg">
<path d="M1243.8 579.393C1237.94 585.251 1237.94 594.749 1243.8 600.607L1339.26 696.066C1345.11 701.924 1354.61 701.924 1360.47 696.066C1366.33 690.208 1366.33 680.711 1360.47 674.853L1275.62 590L1360.47 505.147C1366.33 499.289 1366.33 489.792 1360.47 483.934C1354.61 478.076 1345.11 478.076 1339.26 483.934L1243.8 579.393ZM410.322 15V0H65V15V30H410.322V15ZM15 65H0V137H15H30V65H15ZM65 187V202H1621V187V172H65V187ZM1671 237H1656V540H1671H1686V237H1671ZM1621 590V575H1254.4V590V605H1621V590ZM1671 540H1656C1656 559.33 1640.33 575 1621 575V590V605C1656.9 605 1686 575.899 1686 540H1671ZM1621 187V202C1640.33 202 1656 217.67 1656 237H1671H1686C1686 201.101 1656.9 172 1621 172V187ZM15 137H0C0 172.898 29.1015 202 65 202V187V172C45.67 172 30 156.33 30 137H15ZM65 15V0C29.1015 0 0 29.1015 0 65H15H30C30 45.67 45.67 30 65 30V15Z" fill="#33E39D"/>
</svg>
